#!OML:ASF \\sashay\E\basketball\basketball\Project 1\Capture day 1\Session 1\Subject.ASF
:FULLY-SPECIFIED
:DEGREES
49
root -35.5106 15.6125 0.581168 -180.398 77.438 172.018
lowerback 15.0675 5.01212 -7.72006
upperback 11.7629 6.73152 0.422226
thorax 3.35855 3.30218 3.93298
lowerneck 4.14105 -14.9515 -16.7908
upperneck -24.6327 -16.7474 31.0081
head -3.07184 -9.19024 13.1
rclavicle -7.91163e-014 8.07066e-014
rhumerus -14.3767 18.8704 -104.26
rradius 53.0257
rwrist -32.7171
rhand -20.5104 29.5269
rfingers 7.12502
rthumb 5.84709 -0.372382
lclavicle -7.91163e-014 8.07066e-014
lhumerus -7.88637 -3.2274 100.824
lradius 49.4522
lwrist 18.385
lhand -13.7896 30.786
lfingers 7.12502
lthumb 12.332 60.4023
rfemur -25.1745 -16.8502 16.4893
rtibia 46.8822
rfoot -19.885 -17.4908
rtoes -15.4593
lfemur -26.7493 6.31603 -20.4439
ltibia 41.9833
lfoot -16.3676 -4.0724
ltoes -10.7487
50
root -35.5222 15.6053 0.590191 -179.714 77.8941 172.616
lowerback 16.5233 4.97989 -7.16436
upperback 10.7778 6.48633 -0.191863
thorax 1.65876 3.27861 2.82542
lowerneck 4.53011 -14.7809 -16.3116
upperneck -24.1647 -16.5432 31.1238
head -3.09215 -9.15885 13.1007
rclavicle -3.51849e-014 3.91606e-014
rhumerus -15.3788 17.5633 -105.439
rradius 52.4273
rwrist -32.3766
rhand -20.0789 29.3438
rfingers 7.12502
rthumb 6.26363 -0.543572
lclavicle -3.51849e-014 3.91606e-014
lhumerus -8.74825 -3.40539 100.145
lradius 48.6862
lwrist 17.9478
lhand -13.6719 29.8174
lfingers 7.12502
lthumb 12.4454 59.4268
rfemur -25.5253 -16.5092 16.6043
rtibia 47.1819
rfoot -20.3237 -16.5033
rtoes -13.4881
lfemur -27.0241 6.33451 -20.1977
ltibia 42.29
lfoot -16.8913 -3.4356
ltoes -15.7589
51
root -35.5297 15.607 0.597502 -179.19 78.2892 173.064
lowerback 15.498 5.0014 -7.28425
upperback 11.673 6.71778 0.0985238
thorax 3.10899 3.34187 3.31099
lowerneck 4.21949 -14.9624 -16.2476
upperneck -25.4306 -16.4929 31.2656
head -3.39641 -9.12627 13.23
rclavicle -5.36719e-014 -3.57812e-015
rhumerus -13.6287 17.5417 -104.096
rradius 51.8042
rwrist -32.8511
rhand -20.0272 28.971
rfingers 7.12502
rthumb 6.31354 -0.914888
lclavicle -5.36719e-014 -3.57812e-015
lhumerus -6.73095 -4.00225 100.902
lradius 47.5791
lwrist 17.6229
lhand -14.3426 30.2946
lfingers 7.12502
lthumb 11.7988 59.9423
rfemur -25.8887 -16.1957 16.6127
rtibia 47.5228
rfoot -21.6824 -14.6155
rtoes -6.1851
lfemur -27.2353 6.42644 -20.0275
ltibia 42.5983
lfoot -17.2028 -3.18974
ltoes -17.166
52
root -35.5437 15.583 0.605304 -178.832 78.6051 173.366
lowerback 15.5427 4.98273 -7.29822
upperback 11.8269 6.71031 0.156448
thorax 3.24952 3.33288 3.38708
lowerneck 3.9116 -15.064 -15.9415
upperneck -25.8023 -16.4972 31.1513
head -3.49777 -9.11979 13.1433
rclavicle -9.74045e-015 1.23246e-014
rhumerus -13.1728 17.0703 -103.604
rradius 51.4618
rwrist -32.8845
rhand -19.955 28.5237
rfingers 7.12502
rthumb 6.38328 -1.36014
lclavicle -9.74045e-015 1.23246e-014
lhumerus -5.94215 -4.43581 101.265
lradius 46.7913
lwrist 17.4363
lhand -14.6694 30.4206
lfingers 7.12502
lthumb 11.4836 60.0861
rfemur -26.3713 -16.2556 16.7273
rtibia 47.8597
rfoot -20.5148 -15.3408
rtoes -12.6198
lfemur -27.4728 6.35265 -19.8909
ltibia 42.9387
lfoot -17.1617 -3.18877
ltoes -13.89
53
root -35.5754 15.5532 0.613921 -177.753 78.5485 174.385
lowerback 17.8113 4.73379 -6.37576
upperback 10.4582 6.12963 -0.552779
thorax 0.783278 3.1725 1.94725
lowerneck 3.98883 -14.9695 -15.0833
upperneck -24.752 -16.4661 30.9217
head -3.34481 -9.15476 12.8478
rclavicle 5.82439e-014 -5.12864e-014
rhumerus -14.8716 15.465 -105.072
rradius 51.3483
rwrist -32.3359
rhand -19.6451 28.3331
rfingers 7.12502
rthumb 6.68246 -1.54144
lclavicle 5.82439e-014 -5.12864e-014
lhumerus -7.32884 -4.77246 100.454
lradius 46.2016
lwrist 17.2573
lhand -14.7102 29.8774
lfingers 7.12502
lthumb 11.4442 59.545
rfemur -27.0399 -16.6838 17.0455
rtibia 48.3958
rfoot -18.7452 -16.7984
rtoes -22.8969
lfemur -27.7627 5.66786 -19.5493
ltibia 43.1357
lfoot -17.0746 -3.12509
ltoes -10.3931
54
root -35.5957 15.5359 0.622708 -178.17 78.9186 173.905
lowerback 17.7395 4.74511 -6.64177
upperback 10.7355 6.15071 -0.380215
thorax 1.08275 3.16299 2.29342
lowerneck 3.88166 -14.9463 -15.2029
upperneck -25.3847 -16.2978 31.0114
head -3.52086 -9.06245 12.9698
rclavicle 5.35725e-014 -5.82439e-014
rhumerus -14.4821 14.9975 -104.178
rradius 51.4988
rwrist -32.2091
rhand -19.2498 28.2082
rfingers 7.12502
rthumb 7.06405 -1.65397
lclavicle 5.35725e-014 -5.82439e-014
lhumerus -6.19303 -4.98056 101.139
lradius 45.185
lwrist 16.7635
lhand -14.922 29.88
lfingers 7.12502
lthumb 11.24 59.5589
rfemur -27.3838 -16.1461 16.6574
rtibia 48.8579
rfoot -20.8008 -14.4681
rtoes -14.7378
lfemur -27.9012 5.41209 -19.4994
ltibia 43.3137
lfoot -17.2348 -3.03975
ltoes -8.4718
55
root -35.6113 15.5525 0.630673 -179.687 79.3 172.271
lowerback 17.7698 4.67934 -6.81613
upperback 10.885 6.06254 -0.562704
thorax 1.24724 3.11702 2.22102
lowerneck 3.81228 -14.8955 -15.1215
upperneck -25.8617 -16.0672 31.2368
head -3.67708 -8.96543 13.1087
rclavicle 8.54774e-015 2.98177e-014
rhumerus -14.4389 14.0996 -103.826
rradius 52.0526
rwrist -31.4339
rhand -18.7679 27.8706
rfingers 7.12502
rthumb 7.52918 -1.9754
lclavicle 8.54774e-015 2.98177e-014
lhumerus -5.30194 -5.3606 101.328
lradius 44.3021
lwrist 16.3867
lhand -14.9102 29.4524
lfingers 7.12502
lthumb 11.2514 59.1306
rfemur -27.9438 -16.3683 16.3613
rtibia 49.3601
rfoot -20.9248 -14.1495
rtoes -16.2516
lfemur -28.0321 5.45217 -19.7802
ltibia 43.3787
lfoot -17.372 -2.65536
ltoes -9.5701
56
root -35.6247 15.5392 0.647511 -179.974 79.7989 171.814
lowerback 17.8215 4.65794 -7.00112
upperback 10.8634 5.99492 -0.57431
thorax 1.19095 3.07392 2.31729
lowerneck 3.8513 -14.763 -15.2531
upperneck -26.2957 -15.7667 31.4632
head -3.8347 -8.82434 13.302
rclavicle -1.0635e-014 2.70347e-014
rhumerus -14.5588 13.3989 -103.488
rradius 52.4276
rwrist -31.0539
rhand -18.4742 27.5376
rfingers 7.12502
rthumb 7.81263 -2.29809
lclavicle -1.0635e-014 2.70347e-014
lhumerus -4.66732 -5.43616 101.654
lradius 43.6131
lwrist 15.754
lhand -13.7239 28.1462
lfingers 7.12502
lthumb 12.3954 57.7587
rfemur -28.6096 -15.8993 16.1866
rtibia 49.5078
rfoot -20.6726 -14.2174
rtoes -16.5137
lfemur -28.3698 5.67027 -19.7549
ltibia 43.6348
lfoot -17.4626 -2.51328
ltoes -9.10663
57
root -35.6204 15.516 0.654252 -180.837 80.59 171.082
lowerback 17.9931 4.72692 -7.18486
upperback 10.9246 6.04948 -0.623184
thorax 1.15888 3.09588 2.34604
lowerneck 3.71615 -14.665 -15.3169
upperneck -26.5318 -15.5476 31.5413
head -3.91354 -8.70411 13.3817
rclavicle 1.6201e-014 6.55989e-015
rhumerus -14.503 12.8623 -103.189
rradius 52.563
rwrist -31.2544
rhand -18.1977 27.4149
rfingers 7.12502
rthumb 8.07956 -2.41065
lclavicle 1.6201e-014 6.55989e-015
lhumerus -3.98625 -5.53329 101.924
lradius 43.0089
lwrist 14.7121
lhand -12.3748 28.098
lfingers 7.12502
lthumb 13.6958 57.6273
rfemur -28.9517 -15.5374 15.9586
rtibia 49.6257
rfoot -19.9302 -14.9136
rtoes -21.1167
lfemur -28.0886 5.82367 -19.6982
ltibia 43.6438
lfoot -17.665 -2.1926
ltoes -8.14315
58
root -35.6467 15.4731 0.689669 -181.017 80.6424 170.488
lowerback 18.0289 4.61338 -7.40316
upperback 10.8896 5.8598 -0.646387
thorax 1.10713 2.99177 2.47252
lowerneck 3.04259 -14.7923 -15.0359
upperneck -26.6223 -15.5978 31.4341
head -3.85167 -8.69081 13.2243
rclavicle -9.67087e-014 3.67752e-014
rhumerus -14.1441 12.0843 -102.862
rradius 52.7054
rwrist -31.263
rhand -17.905 27.303
rfingers 7.12502
rthumb 8.36202 -2.51148
lclavicle -9.67087e-014 3.67752e-014
lhumerus -3.0344 -5.91068 102.182
lradius 42.1808
lwrist 14.1347
lhand -12.5011 28.1291
lfingers 7.12502
lthumb 13.574 57.6666
rfemur -29.891 -15.8268 16.1836
rtibia 49.5687
rfoot -16.8928 -18.2166
rtoes -33.8731
lfemur -28.792 5.71435 -19.6604
ltibia 43.789
lfoot -17.5991 -1.9525
ltoes -10.165
59
root -35.5973 15.5141 0.685997 -182.967 82.5173 169.507
lowerback 18.3945 5.13377 -7.6898
upperback 11.2305 6.5113 -0.675048
thorax 1.22086 3.30885 2.46391
lowerneck 2.95558 -14.7785 -15.0334
upperneck -26.8339 -15.517 31.4626
head -3.91322 -8.64702 13.2581
rclavicle -4.37326e-015 -2.88238e-015
rhumerus -14.1104 11.0393 -102.595
rradius 52.8095
rwrist -30.969
rhand -17.8248 27.3195
rfingers 7.12502
rthumb 8.43942 -2.49187
lclavicle -4.37326e-015 -2.88238e-015
lhumerus -2.4626 -6.24361 102.56
lradius 41.3557
lwrist 13.946
lhand -13.5656 27.5925
lfingers 7.12502
lthumb 12.5479 57.1957
rfemur -28.9067 -14.0783 15.3467
rtibia 49.8018
rfoot -22.2867 -12.524
rtoes -11.7864
lfemur -26.8524 6.6218 -19.356
ltibia 43.4859
lfoot -18.2482 -1.62984
ltoes -8.66011
60
root -35.5848 15.5014 0.689555 -183.752 83.3295 168.952
lowerback 18.5617 5.18711 -7.51599
upperback 11.2943 6.59871 -0.835214
thorax 1.2319 3.36739 2.17256
lowerneck 2.92252 -14.6724 -15.0778
upperneck -26.9799 -15.2904 31.6703
head -3.9699 -8.54245 13.385
rclavicle 6.90777e-015 -3.97569e-016
rhumerus -13.9899 9.81846 -102.527
rradius 52.8348
rwrist -30.7134
rhand -17.6552 27.5277
rfingers 7.12502
rthumb 8.60305 -2.27705
lclavicle 6.90777e-015 -3.97569e-016
lhumerus -1.93565 -6.75398 102.707
lradius 40.5221
lwrist 13.2631
lhand -14.6911 27.2272
lfingers 7.12502
lthumb 11.4627 56.8938
rfemur -29.0213 -13.4854 15.0012
rtibia 49.8559
rfoot -22.8205 -11.5078
rtoes -7.65943
lfemur -26.2795 6.57429 -19.1426
ltibia 43.488
lfoot -18.5695 -1.77571
ltoes -4.57549
61
root -35.6493 15.513 0.726445 -183.259 82.3613 168.961
lowerback 19.1782 4.63233 -7.28504
upperback 11.0149 5.82387 -0.857734
thorax 0.699791 3.00706 2.10675
lowerneck 2.63625 -14.5823 -15.2319
upperneck -26.9636 -15.12 31.7731
head -3.92331 -8.42874 13.4388
rclavicle -3.18801e-014 1.07344e-014
rhumerus -13.7606 8.86427 -102.328
rradius 52.897
rwrist -30.6772
rhand -17.394 27.3921
rfingers 7.12502
rthumb 8.85519 -2.40209
lclavicle -3.18801e-014 1.07344e-014
lhumerus -1.37731 -7.46892 102.977
lradius 40.0376
lwrist 13.3619
lhand -16.0082 27.076
lfingers 7.12502
lthumb 10.1923 56.8091
rfemur -29.9063 -13.9838 14.8455
rtibia 49.9906
rfoot -22.4834 -11.4854
rtoes -6.36323
lfemur -27.2342 5.77737 -19.2168
ltibia 43.4327
lfoot -18.1392 -1.47818
ltoes -8.49509
62
root -35.6753 15.4799 0.742942 -184.208 82.3351 167.782
lowerback 19.5349 4.37724 -7.29933
upperback 10.8288 5.42954 -0.854034
thorax 0.348289 2.81639 2.16126
lowerneck 2.35406 -14.5292 -15.3311
upperneck -27.0129 -15.0185 31.683
head -3.91346 -8.34077 13.412
rclavicle 1.61264e-014 -4.82053e-015
rhumerus -13.7784 8.0613 -102.032
rradius 53.1649
rwrist -30.6918
rhand -17.2762 27.1003
rfingers 7.12502
rthumb 8.96884 -2.68902
lclavicle 1.61264e-014 -4.82053e-015
lhumerus -0.976425 -7.97255 103.369
lradius 39.7818
lwrist 13.4514
lhand -17.6554 26.8439
lfingers 7.12502
lthumb 8.6029 56.6486
rfemur -30.6717 -14.1383 14.6423
rtibia 49.7917
rfoot -19.0853 -14.8514
rtoes -22.467
lfemur -27.8995 5.75654 -19.4229
ltibia 43.7228
lfoot -18.072 -0.443921
ltoes -15.0835
63
root -35.6361 15.4517 0.732688 -185.755 83.5378 166.322
lowerback 18.9459 4.4554 -7.26585
upperback 11.1047 5.61493 -0.933975
thorax 0.942034 2.89389 2.08101
lowerneck 1.90983 -14.5139 -15.3356
upperneck -27.2117 -14.8957 31.6424
head -3.9265 -8.2399 13.3889
rclavicle 3.08116e-015 -3.00165e-014
rhumerus -13.4863 7.11077 -101.732
rradius 53.4759
rwrist -30.5709
rhand -16.9696 27.2607
rfingers 7.12502
rthumb 9.26469 -2.51577
lclavicle 3.08116e-015 -3.00165e-014
lhumerus -0.399788 -8.72219 103.571
lradius 39.7734
lwrist 13.6901
lhand -19.2684 26.9891
lfingers 7.12502
lthumb 7.0461 56.8518
rfemur -31.078 -13.8415 14.5581
rtibia 49.6905
rfoot -16.1232 -17.0856
rtoes -33.816
lfemur -27.5231 6.24155 -19.3715
ltibia 43.8588
lfoot -18.5548 0.22735
ltoes -15.5133
